<?xml version="1.0" standalone="no"?>
<!DOCTYPE svg PUBLIC "-//W3C//DTD SVG 20010904//EN"
 "http://www.w3.org/TR/2001/REC-SVG-20010904/DTD/svg10.dtd">
<svg version="1.0" xmlns="http://www.w3.org/2000/svg"
 width="450.000000pt" height="475.000000pt" viewBox="0 0 450.000000 475.000000"
 preserveAspectRatio="xMidYMid meet">
<metadata>
Created by potrace 1.10, written by Peter Selinger 2001-2011
</metadata>
<g transform="translate(0.000000,475.000000) scale(0.100000,-0.100000)"
fill="#315e38" stroke="none">
<path d="M4252 4714 c5 -20 18 -50 28 -67 11 -17 17 -34 14 -39 -3 -4 1 -8 8
-8 7 -1 31 -19 53 -40 22 -22 48 -43 58 -46 10 -3 29 -16 42 -30 13 -13 29
-24 35 -24 6 0 10 51 10 145 l0 145 -129 0 -129 0 10 -36z"/>
<path d="M3650 4543 c-8 -3 -23 -13 -33 -21 -16 -15 -17 -14 -11 4 7 17 6 17
-9 5 -9 -7 -17 -11 -17 -7 0 4 -10 0 -23 -9 -13 -8 -27 -12 -30 -9 -4 4 -9 -1
-13 -10 -3 -9 -10 -13 -15 -10 -5 3 -9 0 -9 -6 0 -6 -4 -9 -9 -5 -5 3 -12 -4
-16 -15 -4 -11 -10 -18 -15 -15 -5 3 -12 -4 -15 -16 -6 -17 -9 -19 -16 -8 -6
10 -9 8 -9 -10 0 -16 -4 -21 -15 -17 -11 4 -15 -2 -15 -22 0 -19 -3 -23 -9
-14 -10 17 -20 -5 -22 -46 -1 -23 -3 -22 -9 8 -7 31 -8 29 -10 -25 l-2 -60
-13 40 -13 40 -2 -50 c-1 -39 -3 -46 -11 -30 -7 15 -8 6 -6 -32 2 -29 0 -50
-5 -47 -4 3 -8 11 -8 19 0 8 -4 16 -9 19 -4 3 -5 -13 0 -37 13 -67 12 -68 -38
-37 -49 31 -65 32 -42 3 8 -10 -3 -3 -24 14 -21 18 -62 40 -95 49 -31 9 -118
35 -192 59 -215 68 -299 80 -555 80 -187 0 -237 -4 -330 -23 -154 -31 -308
-83 -460 -157 -224 -108 -378 -224 -507 -383 -48 -58 -63 -71 -68 -58 -3 10
-10 17 -15 16 -6 0 -14 18 -19 42 -8 39 -10 40 -16 18 -6 -22 -8 -20 -15 20
-8 44 -9 44 -15 15 -7 -31 -9 -29 -29 35 l-10 35 4 -35 5 -35 -17 35 c-16 33
-17 34 -21 11 -4 -22 -5 -21 -22 15 -10 21 -19 32 -20 24 0 -10 -6 -6 -15 10
-8 14 -14 19 -15 11 0 -8 -8 -4 -19 10 l-20 24 5 -25 5 -25 -17 27 c-22 32
-46 46 -37 20 4 -12 -2 -10 -22 8 -25 22 -27 22 -21 5 6 -17 4 -16 -20 5 -20
19 -26 21 -21 7 6 -16 5 -16 -18 -1 -16 11 -25 12 -25 5 0 -9 -5 -9 -20 -1
-13 7 -20 7 -20 1 0 -6 -7 -8 -15 -5 -8 4 -15 2 -15 -4 0 -6 -9 -8 -21 -5 -12
3 -24 2 -28 -3 -3 -5 -19 -16 -36 -24 l-30 -14 35 -7 c19 -3 31 -7 25 -8 -5
-1 -3 -6 5 -11 8 -5 26 -7 40 -3 24 5 25 5 5 -10 -20 -16 -20 -16 3 -17 13 0
20 -4 17 -10 -4 -6 6 -10 21 -10 27 0 27 -1 8 -15 -18 -14 -17 -14 15 -15 27
0 31 -3 22 -13 -8 -11 -4 -13 22 -10 30 4 31 3 13 -11 -17 -14 -15 -15 20 -18
l39 -3 -30 -17 -30 -17 45 -1 c25 -1 39 -4 33 -7 -22 -8 -14 -23 12 -23 14 0
24 -4 23 -9 -2 -5 15 -22 37 -38 22 -17 61 -54 85 -84 l45 -54 -70 64 c-82 74
-171 120 -249 128 -64 7 -118 -3 -95 -18 10 -6 2 -9 -27 -9 -63 0 -198 -75
-251 -139 -52 -63 -56 -84 -8 -42 44 38 53 40 26 4 -12 -14 -19 -29 -15 -32 3
-3 11 1 17 10 7 8 25 24 42 35 l30 19 -23 -32 c-28 -39 -15 -44 19 -7 13 14
33 31 44 36 15 9 13 3 -8 -22 -15 -18 -25 -35 -22 -38 3 -3 11 1 18 10 6 9 25
24 40 33 l28 18 -21 -36 c-26 -44 -20 -46 26 -9 18 15 37 26 41 25 5 0 17 4
28 9 15 8 13 3 -7 -19 -32 -33 -36 -48 -11 -33 10 5 43 21 73 36 l55 26 -35
-31 c-39 -34 -35 -39 12 -15 16 9 27 11 24 5 -9 -14 -5 -14 37 4 53 22 57 18
12 -11 l-40 -25 33 5 c20 4 31 2 27 -4 -3 -6 1 -10 9 -10 9 0 16 -4 16 -10 0
-6 49 -11 123 -12 l122 -1 -120 -7 c-115 -8 -166 -18 -248 -54 -22 -10 -36
-12 -32 -7 10 17 -7 13 -45 -10 -45 -27 -81 -60 -75 -69 2 -4 -10 -20 -28 -36
l-32 -29 29 33 c17 17 25 32 19 32 -6 0 -23 -17 -39 -37 -15 -20 -22 -33 -16
-29 19 11 14 -3 -12 -37 -32 -43 -66 -146 -65 -199 l1 -43 11 32 c18 48 27 50
27 7 l1 -39 25 60 c34 78 38 81 29 18 -4 -29 -5 -53 -2 -53 3 0 13 24 23 53
l18 52 6 -35 7 -35 12 30 c6 17 14 37 18 45 4 11 8 8 13 -10 6 -24 7 -23 30
20 23 43 24 44 31 20 4 -14 7 -20 8 -15 1 6 12 24 26 40 l24 30 -9 -35 c-15
-52 -11 -51 15 5 l24 50 1 -35 1 -35 20 38 c11 20 22 37 25 37 3 0 2 -4 -1
-10 -12 -20 7 -9 31 18 l24 27 -10 -27 c-13 -38 -6 -35 20 7 33 53 39 42 18
-32 -103 -363 -102 -710 4 -1051 29 -96 32 -68 4 39 -53 200 -61 262 -61 489
0 225 8 289 56 453 28 94 36 77 11 -20 -74 -279 -73 -582 4 -887 60 -239 134
-412 246 -581 93 -140 86 -134 165 -118 37 8 69 16 71 18 2 2 -23 41 -55 87
-74 105 -107 158 -100 164 2 3 17 -14 33 -38 91 -136 150 -208 170 -208 11 0
81 11 155 25 74 14 157 30 184 35 28 5 358 65 735 134 377 69 777 141 890 161
360 63 479 87 489 99 10 12 111 302 111 318 0 6 -8 7 -17 4 -13 -5 -12 -1 5
17 25 27 45 128 35 178 -6 32 -66 99 -88 99 -12 0 -12 -5 2 -34 14 -31 14 -39
0 -92 l-15 -59 -1 50 c-1 28 -8 97 -15 155 -9 73 -10 107 -3 112 6 3 37 10 69
13 32 4 58 10 58 13 0 15 -21 138 -26 155 -5 16 -9 14 -29 -16 -13 -19 -32
-37 -41 -41 -14 -5 -15 -4 -5 8 18 22 5 36 -34 36 l-33 0 -26 113 c-36 151
-67 253 -133 435 -31 84 -53 155 -50 158 12 12 37 -6 37 -26 0 -11 7 -23 15
-26 8 -3 19 -21 25 -39 6 -18 19 -40 30 -50 11 -10 22 -33 26 -52 4 -23 11
-33 20 -29 8 3 14 1 14 -5 0 -6 12 -36 26 -67 14 -31 37 -85 51 -120 14 -35
29 -59 33 -52 12 19 69 -111 92 -210 18 -80 22 -127 22 -295 1 -229 -8 -285
-80 -506 -24 -75 -44 -138 -44 -141 0 -5 114 19 145 32 25 9 74 145 106 290
26 122 36 395 20 536 -36 305 -128 562 -282 791 -28 41 -48 78 -44 81 7 7 2
14 83 -108 133 -199 209 -407 257 -705 l15 -90 -5 81 c-14 231 -108 498 -257
732 -32 50 -63 104 -69 119 l-10 28 23 -23 c34 -31 47 -28 17 5 -26 29 -12 24
39 -14 35 -26 41 -21 15 17 -9 14 5 5 30 -20 51 -48 56 -47 31 3 l-16 32 42
-40 c27 -26 38 -32 31 -18 -19 37 -12 38 25 2 l35 -34 -11 29 c-10 27 -9 28 7
15 10 -7 30 -24 46 -38 31 -28 33 -23 12 22 l-16 32 34 -37 c40 -44 50 -48 37
-12 -15 39 -12 39 24 -5 26 -31 35 -37 40 -25 3 8 -1 27 -10 42 -10 16 3 7 32
-23 26 -27 44 -42 41 -32 -12 33 -19 67 -14 67 3 0 14 -15 26 -32 34 -54 24
-7 -11 52 -19 30 -58 75 -90 100 -31 25 -52 47 -46 49 19 7 -47 41 -80 41 -20
0 -35 6 -38 15 -4 11 -21 15 -56 15 -34 0 -47 3 -42 12 9 14 -122 4 -214 -18
-85 -19 -88 -17 -17 11 58 23 59 24 25 26 -34 1 -33 2 20 19 l55 19 -40 2 -40
1 45 10 c74 16 92 27 46 27 -55 1 -39 11 18 13 46 1 51 11 11 22 -11 3 9 3 45
1 l65 -5 -40 20 c-40 20 -40 20 -7 15 17 -3 47 -8 65 -11 30 -5 31 -5 12 9
-11 8 -29 17 -40 20 -11 3 8 3 43 0 69 -6 78 1 30 22 -43 18 -14 19 45 1 56
-17 62 -7 11 18 -51 24 -35 32 25 12 66 -21 73 -20 33 5 -38 25 -37 34 2 19
36 -13 49 -13 40 1 -5 8 1 10 20 7 38 -7 17 15 -40 41 -79 38 -232 36 -339 -4
-20 -8 -20 -8 0 9 20 17 20 17 -5 10 -87 -22 -184 -117 -241 -237 -22 -45 -37
-71 -34 -57 10 39 62 148 87 183 13 18 23 36 23 40 0 5 9 15 19 23 14 10 16
14 5 14 -8 1 2 9 21 19 34 18 34 19 10 23 -24 3 -23 5 15 26 l40 23 -35 -6
-35 -6 45 25 c44 25 45 25 15 26 l-30 1 35 19 c33 18 34 19 10 20 -22 1 -20 4
15 20 22 10 33 19 25 20 -9 0 -6 6 10 15 l25 14 -25 1 c-20 1 -17 4 17 16 50
18 65 44 25 44 -15 0 -36 2 -47 5 -11 2 -27 1 -35 -2z m-1039 -252 c62 -11
164 -36 224 -55 61 -20 116 -36 124 -36 27 0 147 -40 166 -55 20 -15 20 -15 0
-8 -11 3 -24 9 -30 13 -22 17 -154 40 -177 31 -13 -4 -36 -11 -53 -15 l-30 -6
33 18 34 18 -89 27 c-468 143 -976 79 -1406 -180 -149 -89 -350 -255 -373
-308 -7 -16 -13 -23 -14 -14 -1 76 256 282 515 410 202 100 401 159 612 179
125 12 330 4 464 -19z m19 -170 c47 -12 89 -26 94 -31 15 -15 -3 -13 -107 12
-81 20 -119 22 -312 22 -206 1 -227 -1 -333 -27 -62 -15 -159 -46 -215 -68
-110 -43 -314 -152 -297 -157 6 -2 21 3 33 11 110 71 305 156 442 192 203 52
467 58 670 15 101 -22 120 -29 98 -37 -7 -3 -13 -9 -13 -14 0 -8 68 -3 99 7
11 3 11 1 2 -10 -9 -11 -7 -15 14 -20 14 -4 23 -11 20 -16 -3 -6 6 -10 22 -11
l28 -1 -30 -13 c-16 -7 -35 -11 -42 -8 -6 3 -20 0 -30 -6 -14 -8 -15 -10 -3
-11 8 0 -7 -13 -35 -29 -57 -33 -100 -76 -108 -108 -4 -20 -2 -21 14 -13 15 9
18 7 13 -7 -3 -10 8 -2 26 17 19 22 27 27 21 13 -17 -34 -13 -38 14 -13 16 15
25 19 25 10 0 -8 16 1 37 21 27 25 32 28 20 9 -25 -36 -21 -47 8 -20 14 13 28
20 32 17 3 -4 18 3 31 15 24 22 24 22 -3 -20 -38 -57 -28 -62 15 -7 43 54 60
59 25 8 -14 -21 -25 -40 -25 -44 0 -9 53 2 69 15 11 8 13 8 7 -2 -4 -7 -22
-19 -39 -26 -18 -8 -26 -15 -19 -15 7 -1 29 6 49 14 20 8 38 13 40 11 2 -2
-17 -12 -44 -21 -144 -52 -253 -119 -259 -159 -1 -8 -11 -27 -22 -43 -11 -15
-23 -41 -26 -58 -5 -28 -5 -28 6 -7 17 33 27 27 22 -15 l-4 -38 16 38 c20 44
33 48 28 10 -3 -18 3 -9 16 22 16 40 19 43 14 16 -4 -23 -3 -31 5 -27 6 4 11
13 11 19 0 7 8 19 18 28 9 8 27 28 40 44 l23 30 -21 -43 c-29 -59 -19 -64 14
-8 44 76 51 64 9 -15 -22 -41 -50 -90 -62 -110 -14 -25 -23 -59 -26 -105 -3
-48 -2 -60 4 -39 8 27 9 24 10 -23 1 -62 15 -61 26 0 l9 43 6 -45 c6 -40 7
-41 8 -12 1 19 8 46 15 60 17 34 43 91 52 117 7 19 8 18 15 -5 5 -14 8 -18 9
-10 1 8 15 42 31 75 16 33 28 51 26 40 -3 -11 -7 -42 -10 -70 l-6 -50 13 45
c8 25 21 59 31 75 17 31 17 30 0 -37 -5 -22 -5 -22 10 -4 9 11 17 29 17 40 1
16 2 17 6 4 2 -9 -10 -42 -26 -74 -17 -31 -31 -69 -30 -83 0 -24 2 -22 20 14
11 22 17 32 15 23 -3 -9 -7 -34 -10 -55 l-6 -38 15 30 c15 30 16 29 12 -32 -2
-34 0 -60 4 -58 8 6 19 -30 19 -65 0 -14 9 -59 19 -100 16 -61 20 -69 21 -40
1 19 4 29 7 22 9 -24 23 0 23 41 0 45 18 90 21 52 1 -11 7 25 14 80 7 55 13
84 15 65 1 -19 6 -46 10 -60 6 -19 8 -11 9 33 1 36 5 56 11 52 6 -3 10 -17 10
-31 0 -49 20 -12 22 39 1 37 2 42 5 19 6 -47 23 -29 25 26 1 37 2 40 5 15 6
-47 23 -40 24 10 1 23 4 32 6 20 8 -42 23 -24 24 30 l2 52 7 -40 c5 -27 8 -32
9 -15 1 20 3 22 11 10 15 -24 23 12 16 68 -8 57 5 41 35 -46 19 -54 92 -317
109 -392 14 -63 40 -195 40 -204 0 -18 -138 4 -238 38 -123 43 -129 41 -213
-56 -183 -212 -292 -296 -478 -367 -51 -19 -51 -19 -62 1 -8 14 -7 28 1 48 10
24 8 37 -15 92 -14 34 -37 99 -50 143 -13 45 -33 101 -44 125 -10 25 -22 74
-26 110 -3 36 -9 74 -12 85 -5 18 -3 17 21 -5 24 -21 26 -22 20 -5 -4 11 -18
33 -31 48 -13 16 -23 38 -23 50 0 18 -2 19 -10 7 -8 -12 -10 -10 -10 10 0 17
-3 21 -9 12 -6 -10 -13 -6 -26 15 -10 15 -36 44 -57 63 -33 30 -40 42 -42 81
-4 54 -17 81 -50 103 -36 23 -80 20 -114 -9 -25 -21 -30 -34 -35 -82 -3 -36 0
-70 9 -90 12 -30 15 -32 40 -23 31 12 44 1 44 -37 0 -39 -12 -53 -60 -74 -68
-29 -69 -40 -27 -249 9 -41 19 -157 23 -258 6 -166 9 -186 29 -216 l22 -33
-22 -84 c-12 -46 -32 -114 -44 -152 -20 -59 -27 -70 -62 -87 -21 -11 -39 -28
-39 -36 0 -10 -6 -14 -14 -11 -9 4 -25 -9 -41 -34 -15 -21 -34 -39 -43 -39 -9
0 -13 -7 -9 -20 3 -11 1 -18 -3 -15 -5 3 -20 -7 -35 -22 -33 -36 -31 -82 5
-100 14 -7 21 -13 15 -13 -5 0 1 -7 13 -16 30 -21 22 -30 -45 -49 -42 -12 -68
-29 -106 -66 -27 -27 -58 -49 -69 -49 -10 0 -16 -4 -13 -10 8 -13 -2 -12 -50
5 l-40 14 33 1 c54 0 121 43 75 47 -10 1 -30 5 -45 8 -16 4 -46 1 -73 -8 -25
-9 -45 -14 -45 -12 0 13 74 45 106 46 31 0 35 2 19 9 -11 5 -34 9 -52 9 -39 1
-50 15 -26 33 10 7 19 19 21 26 3 15 -23 10 -70 -14 -32 -16 -52 -18 -43 -4
11 18 -8 11 -32 -11 l-22 -22 18 49 c9 27 16 55 13 62 -4 12 7 67 25 127 11
39 -76 -70 -98 -122 -12 -29 -26 -50 -30 -48 -4 3 -10 45 -14 95 -4 50 -10 92
-15 95 -8 5 -39 -128 -41 -173 -1 -24 -93 237 -117 331 -9 34 -8 38 12 42 34
7 272 52 401 75 66 13 223 42 349 66 126 24 231 44 233 44 1 0 3 4 3 8 0 5
-73 12 -162 16 -201 8 -311 30 -464 92 -103 41 -214 68 -214 51 0 -8 157 -81
221 -103 30 -9 101 -30 159 -46 83 -22 94 -27 52 -23 -137 14 -376 102 -534
198 l-47 28 -41 -32 c-22 -18 -42 -30 -44 -28 -6 7 -26 292 -26 380 0 46 3
115 7 153 l6 68 18 -57 c24 -77 31 -80 24 -9 l-5 59 13 -45 c8 -25 21 -58 30
-75 l16 -30 -5 40 -6 40 26 -52 c28 -60 35 -65 29 -25 -4 23 -1 21 16 -13 l21
-40 -5 50 -4 50 19 -55 c13 -40 18 -48 20 -30 1 22 4 19 20 -17 23 -51 31 -55
25 -10 -5 32 -5 32 14 -8 11 -22 20 -33 21 -25 0 8 7 2 15 -15 l13 -30 2 30
c1 27 4 23 30 -33 16 -35 33 -61 38 -58 5 3 17 -11 26 -31 12 -26 20 -33 26
-24 5 10 11 5 19 -15 10 -26 10 -25 5 16 -10 81 -43 209 -65 253 -27 53 -61
100 -113 156 -31 33 -35 40 -15 27 26 -17 105 -116 148 -186 26 -44 27 -19 1
39 -16 33 -17 41 -5 31 31 -26 27 1 -7 52 -69 105 -73 115 -23 63 29 -31 41
-39 31 -22 -9 15 -23 39 -32 55 -10 17 3 7 36 -26 29 -29 50 -45 46 -35 -8 23
50 -43 70 -79 17 -33 28 -37 19 -8 -11 36 6 21 25 -22 13 -28 20 -36 20 -23 1
15 5 12 20 -15 20 -35 20 -35 14 -5 -4 17 -11 41 -16 55 l-8 25 22 -25 c15
-18 19 -20 15 -7 -4 10 -7 24 -7 31 0 23 -61 105 -99 133 -35 25 -99 93 -89
93 3 0 26 -21 52 -46 55 -55 77 -51 23 4 -20 21 -37 41 -37 45 0 11 42 -15 84
-53 34 -31 37 -32 26 -10 -7 14 -20 34 -29 45 -9 10 4 4 29 -15 25 -18 52 -38
60 -44 8 -6 4 7 -10 29 l-23 40 36 -34 c44 -41 48 -31 10 24 -24 37 -25 39 -3
20 16 -14 22 -16 18 -5 -2 8 -28 31 -56 50 -43 28 -49 36 -35 41 20 7 -3 13
-122 29 l-70 9 70 -3 c60 -4 65 -3 35 6 -32 9 -72 8 -170 -6 -34 -5 -34 -5 4
6 l39 11 -24 19 -24 19 23 -11 c34 -16 41 -2 12 21 l-25 19 33 -11 c47 -16 50
-5 5 26 l-38 26 40 -7 c22 -4 51 -11 64 -16 19 -7 22 -6 17 8 -4 11 -2 14 6
11 55 -22 55 -22 33 2 l-20 23 38 -22 c22 -13 37 -17 37 -10 0 6 5 8 12 4 6
-4 24 -8 39 -9 29 -2 29 3 0 40 -13 16 -11 16 10 -2 35 -31 48 -29 18 3 -33
35 -90 63 -146 71 -45 7 -46 8 -18 14 26 6 23 7 -18 8 -26 0 -64 -6 -84 -14
-51 -22 -52 -19 -5 16 44 32 55 47 23 29 -33 -17 -38 -11 -8 9 19 12 24 20 15
23 -7 3 12 17 42 31 30 14 48 27 40 27 -8 1 -4 5 10 9 24 8 23 9 -18 26 l-43
18 48 34 c58 42 240 131 343 167 41 15 127 38 190 51 106 23 132 24 325 21
173 -3 225 -8 295 -25z m517 -198 c-4 -3 -10 -3 -14 0 -3 4 0 7 7 7 7 0 10 -3
7 -7z m30 -10 c-4 -3 -10 -3 -14 0 -3 4 0 7 7 7 7 0 10 -3 7 -7z m53 -13 c18
-12 2 -12 -25 0 -13 6 -15 9 -5 9 8 0 22 -4 30 -9z m-2493 -17 c-4 -3 -7 0 -7
7 0 7 3 10 7 7 3 -4 3 -10 0 -14z m511 -23 c-32 -10 -80 -34 -108 -55 -55 -41
-70 -31 -16 10 42 32 121 64 156 64 16 -1 3 -8 -32 -19z m1702 -13 c0 -2 -10
-12 -22 -23 l-23 -19 19 23 c18 21 26 27 26 19z m-1493 -33 c-3 -3 -12 -4 -19
-1 -8 3 -5 6 6 6 11 1 17 -2 13 -5z m1767 -87 c-91 -95 -138 -167 -168 -252
-14 -38 -25 -62 -26 -53 0 17 21 86 43 138 10 26 13 35 16 60 1 12 3 13 10 1
6 -10 16 -2 39 31 28 41 136 148 149 148 3 0 -25 -33 -63 -73z m-2727 -44 c-4
-3 -10 -3 -14 0 -3 4 0 7 7 7 7 0 10 -3 7 -7z m2233 -26 c0 -2 -10 -12 -22
-23 l-23 -19 19 23 c18 21 26 27 26 19z m-1440 -11 c0 -2 -26 -19 -57 -36 -32
-18 -76 -47 -98 -64 -46 -37 -65 -49 -65 -42 0 9 111 88 165 118 53 29 55 30
55 24z m1770 -73 c-14 -44 -36 -73 -25 -33 11 43 28 81 32 76 3 -3 0 -22 -7
-43z m-190 7 c-12 -16 -24 -30 -26 -30 -7 0 5 20 24 43 24 27 25 20 2 -13z
m-1265 0 c3 -5 4 -10 1 -10 -3 0 -8 5 -11 10 -3 6 -4 10 -1 10 3 0 8 -4 11
-10z m2079 -117 c42 -84 103 -263 111 -323 7 -57 1 -46 -30 65 -22 74 -46 137
-123 317 -2 5 -1 8 2 8 3 0 21 -30 40 -67z m-3057 10 c-4 -3 -10 -3 -14 0 -3
4 0 7 7 7 7 0 10 -3 7 -7z m940 -50 c-4 -3 -10 -3 -14 0 -3 4 0 7 7 7 7 0 10
-3 7 -7z m1460 -45 c-3 -8 -6 -5 -6 6 -1 11 2 17 5 13 3 -3 4 -12 1 -19z
m-1923 -35 c44 -22 186 -120 186 -128 0 -9 -78 36 -94 54 -11 12 -23 21 -28
21 -5 0 -24 11 -41 24 -18 14 -53 34 -77 45 -25 12 -34 18 -20 15 14 -4 47
-18 74 -31z m1663 15 c-3 -8 -6 -5 -6 6 -1 11 2 17 5 13 3 -3 4 -12 1 -19z
m-2317 -13 c0 -2 -15 -12 -32 -20 l-33 -16 25 20 c24 20 40 26 40 16z m975
-15 c10 -11 16 -20 13 -20 -3 0 -13 9 -23 20 -10 11 -16 20 -13 20 3 0 13 -9
23 -20z m-62 -145 l21 -30 -23 20 c-13 11 -37 38 -54 60 l-31 40 33 -30 c18
-16 42 -43 54 -60z m-433 -118 c-7 -71 -10 -228 -9 -375 l4 -252 -35 -21 c-46
-28 -45 -26 -29 -46 13 -16 12 -16 -14 0 l-28 18 7 -46 c3 -26 12 -70 18 -98
l12 -52 60 2 60 2 17 -89 c10 -49 31 -122 47 -162 l29 -73 -39 45 c-41 47 -57
91 -45 132 5 21 4 20 -19 -7 -29 -34 -41 -81 -32 -122 5 -21 4 -24 -4 -13 -19
28 -88 254 -111 360 -23 111 -29 270 -12 292 6 7 13 47 17 88 3 41 9 110 12
152 4 43 11 75 15 72 5 -3 8 12 8 33 -1 34 17 131 20 110 0 -5 6 -5 11 -2 7 4
7 13 0 26 -7 13 -7 19 0 19 5 0 10 19 10 41 0 23 5 59 12 81 9 32 13 36 21 23
5 -10 4 -63 -3 -138z m-166 13 c-26 -125 -37 -264 -31 -400 4 -103 3 -124 -5
-90 -25 114 -9 377 33 523 16 59 18 40 3 -33z m373 -12 c-3 -8 -6 -5 -6 6 -1
11 2 17 5 13 3 -3 4 -12 1 -19z m2670 5 c-4 -3 -7 0 -7 7 0 7 3 10 7 7 3 -4 3
-10 0 -14z m-1730 -20 c-4 -3 -10 -3 -14 0 -3 4 0 7 7 7 7 0 10 -3 7 -7z
m-830 -50 c-4 -3 -7 0 -7 7 0 7 3 10 7 7 3 -4 3 -10 0 -14z m1118 -44 c4 -22
27 -80 51 -129 47 -95 60 -143 19 -71 -14 24 -43 65 -65 91 -40 48 -47 76 -34
128 10 34 22 26 29 -19z m-226 -42 l24 -45 -21 -78 c-12 -44 -25 -101 -30
-129 -5 -35 -8 3 -7 127 0 97 2 175 5 173 3 -2 16 -23 29 -48z m948 -96 c-54
-65 -225 -201 -251 -201 -12 0 13 23 89 82 33 25 87 71 120 101 64 59 84 67
42 18z m-1650 -28 c-4 -3 -7 0 -7 7 0 7 3 10 7 7 3 -4 3 -10 0 -14z m923 -27
c0 -26 -6 -18 -14 19 -5 22 -4 26 4 15 5 -8 10 -24 10 -34z m40 14 c12 -16 18
-30 13 -30 -5 0 -17 14 -26 30 -10 17 -16 30 -13 30 2 0 14 -13 26 -30z m-244
-50 c-8 -30 -14 -44 -15 -31 -1 26 21 109 26 95 1 -5 -4 -34 -11 -64z m61 13
c-3 -10 -5 -2 -5 17 0 19 2 27 5 18 2 -10 2 -26 0 -35z m131 -73 c1 -25 1 -25
-8 -3 -5 13 -12 46 -14 75 l-5 53 13 -50 c8 -27 14 -61 14 -75z m-61 88 c-3
-8 -6 -5 -6 6 -1 11 2 17 5 13 3 -3 4 -12 1 -19z m-100 -45 c-3 -10 -5 -2 -5
17 0 19 2 27 5 18 2 -10 2 -26 0 -35z m70 0 c-3 -10 -5 -2 -5 17 0 19 2 27 5
18 2 -10 2 -26 0 -35z m52 -47 c2 -45 -6 -27 -12 29 -4 34 -3 42 3 25 4 -14 8
-38 9 -54z m58 57 c-4 -3 -7 0 -7 7 0 7 3 10 7 7 3 -4 3 -10 0 -14z m-140 -35
c-3 -7 -5 -2 -5 12 0 14 2 19 5 13 2 -7 2 -19 0 -25z m52 -46 c0 -30 -2 -33
-9 -17 -12 28 -12 67 0 60 6 -3 10 -23 9 -43z m1292 -24 c0 -40 2 -131 4 -203
l5 -130 -25 64 c-25 64 -64 135 -71 128 -2 -2 0 -30 5 -63 5 -32 12 -79 15
-104 l7 -45 -34 50 c-37 54 -87 105 -87 89 0 -6 4 -14 9 -19 4 -6 20 -37 35
-70 l27 -60 -28 26 c-15 14 -45 37 -65 52 -21 15 -55 39 -75 54 -39 29 -31 11
14 -32 24 -23 142 -195 121 -178 -8 8 -25 9 -48 3 -19 -4 -30 -8 -24 -9 5 -1
18 -7 27 -13 15 -11 8 -13 -45 -15 -35 -2 -73 -3 -86 -3 -13 0 -20 -5 -17 -10
3 -6 13 -10 21 -10 8 0 12 -4 9 -10 -3 -5 3 -10 15 -10 39 0 15 -24 -48 -49
-84 -33 -72 -37 18 -6 40 14 92 25 114 24 37 0 33 -3 -39 -23 -44 -12 -86 -25
-93 -29 -21 -14 -2 -29 27 -22 l26 6 -26 -27 -27 -26 -56 27 c-39 19 -71 27
-102 27 -26 -1 -56 4 -67 10 l-21 11 22 17 c12 10 22 25 22 34 0 9 6 16 13 16
6 0 3 6 -8 12 -11 7 -26 18 -33 25 -7 7 -16 13 -20 13 -4 0 -16 14 -27 30 -11
17 -29 33 -40 36 -11 4 -35 15 -54 27 -18 11 -50 21 -70 23 -43 4 -83 23 -78
38 2 6 -10 22 -27 35 -28 24 -126 165 -126 181 0 4 24 11 53 14 56 8 525 89
777 136 85 15 161 29 168 29 8 1 12 -20 13 -71z m-1041 -17 c0 -25 -18 1 -25
34 l-6 30 15 -25 c8 -14 15 -32 16 -39z m-420 -66 c0 -25 -2 -45 -5 -45 -11 0
-24 49 -18 69 9 37 23 23 23 -24z m-738 -145 c18 -11 29 -20 23 -20 -5 0 -23
9 -40 20 -39 26 -25 26 17 0z m1353 -144 c12 -22 2 -15 -33 24 -28 30 -58 69
-67 85 -12 21 -1 13 33 -24 27 -30 57 -68 67 -85z m-618 67 c-4 -3 -7 0 -7 7
0 7 3 10 7 7 3 -4 3 -10 0 -14z m-10 -40 c-4 -3 -7 0 -7 7 0 7 3 10 7 7 3 -4
3 -10 0 -14z m-16 -40 c-12 -20 -14 -14 -5 12 4 9 9 14 11 11 3 -2 0 -13 -6
-23z m384 -128 c7 -16 19 -40 25 -52 6 -13 8 -23 5 -23 -10 0 -75 144 -74 165
0 12 6 5 15 -20 8 -22 21 -53 29 -70z m-388 68 c-4 -3 -7 0 -7 7 0 7 3 10 7 7
3 -4 3 -10 0 -14z m-10 -30 c-4 -3 -7 0 -7 7 0 7 3 10 7 7 3 -4 3 -10 0 -14z
m-14 -28 c-3 -9 -8 -14 -10 -11 -3 3 -2 9 2 15 9 16 15 13 8 -4z m1280 8 c-7
-2 -19 -2 -25 0 -7 3 -2 5 12 5 14 0 19 -2 13 -5z m-986 -145 c-3 -8 -6 -5 -6
6 -1 11 2 17 5 13 3 -3 4 -12 1 -19z m178 12 c3 -5 4 -10 1 -10 -3 0 -8 5 -11
10 -3 6 -4 10 -1 10 3 0 8 -4 11 -10z m454 -28 c-13 -5 -108 18 -113 27 -3 4
24 0 59 -9 36 -8 60 -17 54 -18z m352 2 c-84 -39 -96 -41 -82 -17 5 10 36 25
73 34 91 24 92 22 9 -17z m-268 -11 c-7 -2 -21 -2 -30 0 -10 3 -4 5 12 5 17 0
24 -2 18 -5z m297 -7 c0 -2 -12 -12 -27 -21 l-28 -18 19 21 c17 20 36 29 36
18z m-2003 -23 c-4 -3 -7 0 -7 7 0 7 3 10 7 7 3 -4 3 -10 0 -14z m-10 -30 c-4
-3 -7 0 -7 7 0 7 3 10 7 7 3 -4 3 -10 0 -14z m-331 -95 c19 -11 34 -21 34 -23
0 -6 -35 7 -51 18 -19 14 -59 77 -59 92 1 6 10 -7 21 -28 11 -21 36 -48 55
-59z m909 -8 c-8 -13 -71 -45 -105 -54 -14 -4 4 9 40 28 77 40 73 39 65 26z
m-407 -157 c-10 -2 -26 -2 -35 0 -10 3 -2 5 17 5 19 0 27 -2 18 -5z"/>
<path d="M1854 4008 l16 -25 -32 5 c-47 7 -34 -2 60 -38 45 -17 89 -39 98 -47
13 -13 20 -14 35 -5 10 7 24 12 31 12 6 0 28 11 48 25 20 14 57 29 81 34 l44
9 -56 1 c-30 1 -81 -4 -113 -10 -63 -11 -127 3 -195 44 l-34 20 17 -25z"/>
<path d="M2486 4000 c-17 -10 -36 -30 -43 -44 -9 -16 -22 -26 -36 -26 -27 0
-52 -18 -60 -43 -6 -15 -4 -16 14 -6 28 14 34 5 20 -28 -7 -17 -26 -35 -49
-45 l-37 -16 45 -1 c55 -1 71 9 86 51 9 29 15 33 50 36 61 4 73 11 46 26 l-23
12 40 37 c23 20 41 40 41 43 0 5 -23 0 -57 -13 -7 -3 -10 3 -6 16 7 26 5 26
-31 1z"/>
<path d="M1900 3780 c8 -6 36 -22 62 -35 25 -13 48 -30 50 -37 5 -13 23 -6 98
37 14 8 30 16 35 18 6 3 7 7 4 11 -3 3 -30 -1 -61 -9 -46 -12 -61 -12 -94 -1
-60 21 -112 30 -94 16z"/>
<path d="M2790 3734 c-23 -13 -24 -14 -4 -14 12 0 27 7 34 15 15 18 4 18 -30
-1z"/>
<path d="M1685 3715 c17 -14 40 -28 53 -31 12 -4 22 -13 22 -21 0 -24 22 -10
41 27 22 40 19 47 -13 26 -22 -14 -28 -14 -78 4 l-55 20 30 -25z"/>
<path d="M2234 3415 c8 -34 40 -72 68 -81 10 -3 25 -17 34 -32 l15 -27 -4 28
c-6 39 26 32 34 -8 7 -30 7 -30 8 -3 1 30 -8 38 -59 53 -22 7 -47 26 -69 55
-32 42 -34 43 -27 15z"/>
<path d="M3090 3600 c0 -7 3 -10 7 -7 3 4 3 10 0 14 -4 3 -7 0 -7 -7z"/>
<path d="M700 2030 c0 -7 3 -10 7 -7 3 4 3 10 0 14 -4 3 -7 0 -7 -7z"/>
<path d="M4070 1950 c0 -6 -38 -10 -92 -10 -151 0 -254 -33 -347 -108 -129
-105 -100 -313 56 -392 45 -23 60 -25 249 -30 155 -4 205 -8 220 -20 113 -86
83 -239 -58 -300 -44 -19 -65 -22 -133 -18 -127 7 -227 67 -280 168 -29 54
-29 51 -10 -65 8 -49 15 -110 15 -134 0 -37 2 -42 15 -31 12 10 33 9 102 -4
154 -28 251 -18 364 40 60 30 133 112 153 171 43 125 -5 252 -117 310 -50 27
-59 28 -252 33 -222 6 -237 10 -275 73 -37 60 -20 133 42 180 131 99 304 68
384 -69 7 -12 7 6 -2 56 -7 41 -13 94 -14 118 0 23 -4 42 -10 42 -5 0 -10 -4
-10 -10z"/>
<path d="M3384 1830 c-14 -14 -213 -52 -239 -46 -19 4 -19 4 -1 -7 45 -29 68
-51 78 -76 15 -39 138 -658 138 -694 0 -18 -7 -44 -14 -59 -18 -34 -24 -34
124 -8 63 11 119 20 123 20 4 0 -10 17 -31 38 -22 20 -44 53 -49 72 -5 19 -38
180 -74 358 -62 319 -63 324 -47 368 15 43 12 54 -8 34z"/>
<path d="M2946 1735 c-4 -12 -26 -15 -108 -15 -57 0 -125 -6 -153 -14 -150
-40 -245 -141 -245 -259 0 -93 50 -175 134 -220 38 -20 55 -22 236 -22 220 -1
240 -6 279 -75 47 -85 13 -184 -83 -237 -45 -25 -61 -28 -141 -28 -71 0 -100
5 -137 22 -61 28 -136 98 -159 148 -23 49 -23 33 -4 -100 20 -140 20 -148 -7
-140 -35 10 -98 84 -231 275 -67 96 -162 231 -211 300 -50 69 -104 149 -122
178 l-32 52 -16 -25 c-17 -26 -69 -45 -131 -45 l-40 -1 38 -20 c61 -32 77 -68
77 -177 0 -52 -5 -148 -11 -215 -9 -109 -13 -126 -40 -165 -34 -51 -35 -52 -9
-52 16 0 20 -7 20 -37 0 -54 -26 -207 -39 -232 -16 -29 0 -27 68 8 35 18 50
31 42 35 -24 15 -28 52 -17 141 l11 89 45 8 c25 5 80 15 123 23 121 23 118 25
176 -59 66 -96 74 -118 53 -140 -21 -21 -14 -21 98 -1 156 27 188 37 193 56 4
17 11 18 54 11 26 -4 104 -7 173 -7 121 0 127 1 195 33 157 74 224 202 181
346 -20 67 -58 110 -123 143 -57 28 -60 28 -243 28 -158 0 -190 3 -218 18 -44
24 -72 72 -72 125 0 36 6 49 41 87 114 123 301 109 391 -30 l20 -30 -6 30 c-3
17 -10 69 -17 118 -11 84 -20 104 -33 72z m-882 -589 c42 -60 76 -112 76 -116
0 -8 -157 -40 -194 -40 -18 0 -18 6 -12 113 4 61 10 129 13 150 6 37 6 38 24
20 9 -10 52 -67 93 -127z"/>
<path d="M1175 1440 c-292 -52 -474 -337 -400 -625 27 -104 118 -232 210 -295
98 -67 272 -91 410 -55 187 49 326 202 355 391 23 149 -23 316 -116 423 -103
119 -302 188 -459 161z m180 -95 c135 -64 218 -248 219 -485 1 -105 -2 -120
-26 -173 -49 -105 -148 -167 -267 -167 -191 0 -332 203 -348 500 -7 130 9 196
63 258 85 99 232 127 359 67z"/>
<path d="M4256 845 c-120 -24 -252 -49 -292 -56 -41 -6 -74 -16 -74 -20 0 -15
50 -10 230 25 96 19 221 42 278 52 66 12 102 23 102 31 0 17 10 18 -244 -32z"/>
<path d="M3608 848 c-21 -6 -38 -14 -38 -20 0 -5 7 -40 16 -79 15 -67 16 -69
42 -63 54 12 62 16 62 30 0 12 -8 13 -35 8 -28 -5 -35 -3 -35 10 0 9 11 21 25
26 35 13 32 34 -4 27 -21 -4 -31 -2 -35 9 -9 23 -8 24 18 24 25 0 51 22 39 33
-7 8 -6 8 -55 -5z"/>
<path d="M3351 791 c-14 -9 -12 -31 10 -113 12 -48 44 -55 34 -8 -8 38 9 40
41 4 13 -14 29 -22 35 -19 7 5 4 14 -7 26 -11 12 -18 37 -18 67 l-1 47 -40 3
c-22 1 -46 -2 -54 -7z m74 -41 c0 -18 -33 -26 -47 -12 -6 6 -7 15 -3 22 10 16
50 8 50 -10z"/>
<path d="M3192 761 c-10 -6 -10 -18 -1 -59 13 -56 3 -82 -32 -82 -22 0 -38 27
-47 83 -10 54 -28 45 -25 -12 3 -87 67 -128 119 -76 23 23 25 31 19 72 -10 65
-18 84 -33 74z"/>
<path d="M2930 710 c-14 -4 -40 -8 -58 -9 -26 -1 -33 -5 -30 -18 2 -12 11 -17
25 -15 19 3 23 -4 34 -57 9 -40 18 -61 27 -61 12 0 13 10 8 50 -4 28 -9 57
-12 65 -4 10 0 15 15 15 14 0 21 6 21 20 0 11 -1 20 -2 19 -2 -1 -14 -5 -28
-9z"/>
<path d="M2663 658 c-28 -6 -43 -15 -43 -25 0 -11 6 -14 24 -9 23 6 25 2 38
-56 17 -78 44 -95 35 -22 -4 27 -9 59 -13 72 -5 18 -2 22 15 22 12 0 21 6 21
15 0 17 -15 17 -77 3z"/>
<path d="M2485 620 c-4 -6 -1 -33 5 -61 13 -54 4 -79 -30 -79 -26 0 -39 21
-46 74 -5 37 -11 46 -26 46 -14 0 -18 -5 -14 -17 3 -10 10 -40 17 -66 7 -28
19 -52 31 -58 30 -16 69 -6 90 22 18 24 19 31 8 87 -12 60 -22 74 -35 52z"/>
<path d="M9 583 c-13 -16 -12 -17 4 -4 9 7 17 15 17 17 0 8 -8 3 -21 -13z"/>
<path d="M2151 559 c-84 -33 -58 -159 32 -159 51 0 87 33 87 78 -1 44 -16 67
-54 82 -32 12 -33 12 -65 -1z m69 -39 c38 -38 18 -90 -35 -90 -54 0 -76 64
-33 94 30 21 44 20 68 -4z"/>
<path d="M57 522 c-15 -10 -24 -22 -20 -26 5 -4 3 -7 -2 -6 -32 7 -35 -1 -35
-87 l0 -88 35 40 c39 46 65 107 47 113 -9 3 -9 9 -1 24 10 19 9 20 -12 15
l-24 -6 25 19 c32 25 24 26 -13 2z"/>
<path d="M3333 524 c-7 -18 4 -31 32 -36 28 -5 26 -33 -3 -32 -14 0 -19 -3
-13 -9 17 -17 46 -3 46 23 0 18 -6 26 -22 28 -27 4 -31 29 -5 35 12 4 11 5 -6
6 -12 0 -25 -6 -29 -15z"/>
<path d="M1893 510 c-12 -5 -29 -21 -39 -35 -14 -22 -15 -32 -5 -65 6 -22 20
-44 31 -50 27 -14 82 -12 104 5 23 18 12 39 -14 25 -33 -18 -68 -12 -86 15
-29 44 9 94 63 80 20 -5 24 -2 21 12 -4 20 -41 27 -75 13z"/>
<path d="M3160 495 c0 -38 13 -95 21 -95 10 0 1 77 -12 100 -7 12 -8 11 -9 -5z"/>
<path d="M2942 454 c-27 -19 -28 -44 -3 -75 16 -20 23 -22 47 -14 34 12 40 48
9 52 -11 2 -14 0 -7 -3 16 -8 15 -31 -2 -37 -23 -9 -48 16 -44 44 2 18 10 25
31 27 15 2 25 8 22 13 -9 13 -28 11 -53 -7z"/>
<path d="M2686 401 c-16 -17 -16 -20 -1 -35 20 -19 27 -20 43 -4 9 9 12 9 12
-2 0 -26 -17 -43 -35 -37 -9 4 -14 3 -10 -3 8 -13 42 -13 50 1 4 6 4 30 0 55
-7 49 -29 59 -59 25z m38 -7 c9 -23 8 -24 -14 -24 -19 0 -27 20 -13 33 11 11
20 8 27 -9z"/>
<path d="M2466 329 c-3 -17 -6 -41 -6 -53 0 -17 2 -18 10 -6 5 8 10 25 10 38
0 12 5 22 11 22 7 0 9 -9 6 -21 -4 -14 -2 -19 8 -16 7 3 18 0 24 -6 21 -21 11
6 -15 40 -31 41 -40 41 -48 2z"/>
<path d="M1297 261 c-186 -36 -338 -71 -337 -76 0 -6 11 -9 23 -7 61 9 639
119 670 128 9 3 17 10 17 15 0 13 -5 13 -373 -60z"/>
<path d="M2240 308 c0 -33 13 -88 21 -88 5 0 9 7 9 15 0 12 4 13 19 5 28 -15
35 -12 20 6 -7 9 -13 28 -14 42 0 22 -5 28 -27 30 -18 2 -28 -1 -28 -10z m45
-18 c0 -7 -6 -15 -12 -17 -8 -3 -13 4 -13 17 0 13 5 20 13 18 6 -3 12 -11 12
-18z"/>
<path d="M339 275 c-15 -15 -152 -93 -234 -133 -90 -44 -105 -59 -105 -103 0
-21 4 -39 10 -39 16 0 110 71 110 83 0 6 3 7 6 4 4 -4 32 11 63 33 61 43 178
156 170 165 -3 2 -12 -2 -20 -10z"/>
<path d="M4441 182 c-14 -21 -28 -32 -37 -28 -17 7 -17 3 -3 -85 l12 -69 43 0
44 0 0 108 c0 98 -2 108 -19 108 -10 0 -28 -15 -40 -34z"/>
<path d="M81 28 c-20 -13 -29 -24 -21 -26 6 -2 24 7 38 22 32 32 28 33 -17 4z"/>
</g>
</svg>
